<?xml version="1.0" encoding="utf-8"?>
<!-- Generator: Adobe Illustrator 27.4.0, SVG Export Plug-In . SVG Version: 6.00 Build 0)  -->
<svg version="1.1"
	 id="Layer_2_00000183246067624171742200000012702533511447563951_" xmlns="http://www.w3.org/2000/svg" x="0px" y="0px"
	 viewBox="0 0 16 16"
	 style="enable-background:new 0 0 16 16;" xml:space="preserve">
<style type="text/css">
	.st0{fill:#F1841C;}
</style>
	<g id="Layer_1-2">
	<path class="st0" d="M0.9,13.4l5-10.9c0-0.1,0.1-0.1,0.2-0.1s0.2,0.1,0.2,0.1l5,10.9c0,0.1,0,0.2-0.1,0.2H9.7
		c-0.1,0-0.3-0.1-0.3-0.2l-0.4-1c-0.1-0.2-0.4-0.4-0.6-0.4H5.1C5,12.1,5,12,5,11.9l0.6-1.4c0-0.1,0.2-0.2,0.3-0.2h1.6
		c0.3,0,0.4-0.2,0.3-0.4L6.3,6.8C6.3,6.7,6.2,6.6,6.2,6.6C6.1,6.6,6,6.7,6,6.8l-3.1,6.6c0,0.1-0.2,0.2-0.3,0.2H1
		C0.9,13.6,0.9,13.5,0.9,13.4L0.9,13.4z"/>
		<path class="st0" d="M13.2,2.7c0-0.1,0.1-0.2,0.2-0.2h1.5c0.1,0,0.2,0.1,0.2,0.2v1.4c0,0.1-0.1,0.2-0.2,0.2h-1.5
		c-0.1,0-0.2-0.1-0.2-0.2V2.7z M13.4,5.8h1.5c0.1,0,0.2,0.1,0.2,0.2v7.4c0,0.1-0.1,0.2-0.2,0.2h-1.5c-0.1,0-0.2-0.1-0.2-0.2V6.1
		C13.2,5.9,13.3,5.8,13.4,5.8z"/>
</g>
</svg>
