<?xml version="1.0" encoding="utf-8"?>
<!-- Generator: Adobe Illustrator 27.4.0, SVG Export Plug-In . SVG Version: 6.00 Build 0)  -->
<svg version="1.1"
	 id="Layer_2_00000124861189107564184160000012574067597221036682_" xmlns="http://www.w3.org/2000/svg" x="0px" y="0px"
	 viewBox="0 0 993.9 182.3"
	 style="enable-background:new 0 0 993.9 182.3;" xml:space="preserve">
<style type="text/css">
	.st0{fill:#F1841C;}
	.st1{fill:#ECE9E9;}
</style>
	<g id="Layer_1-2">
	<path class="st0" d="M0.3,175.3L79,3.7c0.5-1.2,2.2-2.2,3.7-2.2s3,1,3.5,2.2l78.7,171.6c0.8,1.7,0,3-2,3h-24.4c-2,0-4-1.2-4.7-3
		l-7-15.2c-1.7-3.7-5.7-6.2-10-6.2H66.5c-2,0-2.7-1.2-2-3L74.7,129c0.8-1.7,2.5-3,4.5-3h24.9c4.2,0,5.7-2.5,4-6.5L85.7,70.7
		c-1-2-2-3-3-3s-2,1-3,3L31.4,175.3c-0.8,1.7-2.7,3-4.5,3H2.3C0.3,178.3-0.5,177,0.3,175.3L0.3,175.3z"/>
		<path class="st0" d="M193.5,7.2c0-2,1.2-3.2,3.2-3.2h23.4c2,0,3.2,1.2,3.2,3.2v21.4c0,2-1.2,3.2-3.2,3.2h-23.4
		c-2,0-3.2-1.2-3.2-3.2V7.2z M196.8,56h23.4c2,0,3.2,1.2,3.2,3.2V175c0,2-1.2,3.2-3.2,3.2h-23.4c-2,0-3.2-1.2-3.2-3.2V59.3
		C193.5,57.3,194.8,56,196.8,56z"/>
		<path class="st1" d="M260.7,175V5.2c0-0.8,0.5-1.2,1.2-1.2h46.8c7,0,11.2,0,14.2,0.2c59.8,5.5,67.5,74.4,24.1,97.6
		c-3.7,2-4.7,5.2-2.5,8.5l45.8,65.2c1.2,1.7,0.5,2.7-1.5,2.7h-29.1c-2,0-4-1-5.2-2.7L310,111.3c-1-1.5-2-3.7-2-5.7V83.9
		c0-2,1.2-3.2,3.2-3.2h4.5c37.9,0,37.6-48.5,0-48.5h-18.2c-4.2,0-7,3-7,7.2V175c0,2-1.2,3.2-3.2,3.2H264
		C262,178.3,260.7,177,260.7,175L260.7,175z"/>
		<path class="st1" d="M505.5,0c44.8,0,89.6,30.4,89.6,91.1s-44.8,91.1-89.6,91.1s-89.9-30.4-89.9-91.1S460.4,0,505.5,0z
		 M505.5,152.1c30.1,0,60.5-20.2,60.5-61s-30.4-61-60.5-61S445,50.3,445,91.1S475.1,152.1,505.5,152.1z"/>
		<path class="st1" d="M628.5,175V7.2c0-2,1.2-3.2,3.2-3.2h50c7.2,0,11.5,0,14.2,0.2c42.8,4.2,57,43.6,41.6,70.5
		c-2,3.5-1.5,7.2,1.7,10c33.1,27.9,20.9,93.6-36.3,93.6h-71.2C629.8,178.3,628.5,177,628.5,175L628.5,175z M665.4,150.4H703
		c31.6,0,31.6-50.1,0-50.1h-21.4c-1.7,0-3.2-1.5-3.2-3.2V75.4c0-2,1.5-3.2,3.2-3.2h1c7,0,11.2,0,13.9-0.8c23.7-6,21.2-39.8-7.5-39.8
		h-23.7c-4.2,0-7,2.7-7,7v104.8C658.4,147.6,661.1,150.4,665.4,150.4L665.4,150.4z"/>
		<path class="st1" d="M793.1,4h23.4c2,0,3.2,1.2,3.2,3.2V175c0,2-1.2,3.2-3.2,3.2h-23.4c-2,0-3.2-1.2-3.2-3.2V7.2
		C789.9,5.2,791.1,4,793.1,4z"/>
		<path class="st1" d="M943,0.2c17.4,0,34.1,7,49.3,15.7c1.7,1,1.7,3,0.8,4.5l-13.5,19.2c-1.2,1.7-2.7,2-4.5,0.8
		c-7.5-5.5-18.7-10.5-31.9-10.5c-78.4,0-78.4,122.5,0,122.5c16.2,0,26.1-5,32.1-10c1.5-1.2,3.2-1,4.2,0.5l13.7,18.9
		c1,1.5,0.8,3.5-0.8,4.5C979.1,176.8,964.6,182,943,182c-60,0-89.9-45.6-89.9-90.9S883,0.2,943,0.2z"/>
</g>
</svg>
