{
	"asset":{
		"generator":"Khronos glTF Blender I/O v3.5.30",
		"version":"2.0"
	},
	"scene":0,
	"scenes":[
		{
			"name":"Scene",
			"nodes":[
				0,
				1,
				2,
				3
			]
		}
	],
	"nodes":[
		{
			"mesh":0,
			"name":"Cylinder.001",
			"translation":[
				9.765498161315918,
				0,
				0
			]
		},
		{
			"mesh":1,
			"name":"Plane",
			"rotation":[
				0.7071068286895752,
				0,
				0,
				0.7071068286895752
			],
			"scale":[
				33.19485855102539,
				33.19485855102539,
				16.181060791015625
			],
			"translation":[
				0,
				53.07088088989258,
				1.3036881685256958
			]
		},
		{
			"mesh":2,
			"name":"Text.002",
			"rotation":[
				0,
				0.7071068286895752,
				0.7071068286895752,
				1.3767878215276141e-07
			],
			"scale":[
				-3.707146406173706,
				-3.707146406173706,
				-3.707146406173706
			],
			"translation":[
				-16.3707218170166,
				43.570804595947266,
				0.755607008934021
			]
		},
		{
			"mesh":3,
			"name":"Text.003",
			"rotation":[
				0,
				0.7071068286895752,
				0.7071068286895752,
				1.3767879636361613e-07
			],
			"scale":[
				-3.2407147884368896,
				-3.2407147884368896,
				-3.2407147884368896
			],
			"translation":[
				15.335794448852539,
				43.570804595947266,
				0.755607008934021
			]
		}
	],
	"materials":[
		{
			"doubleSided":true,
			"name":"Material.006",
			"pbrMetallicRoughness":{
				"baseColorFactor":[
					0.006370488554239273,
					0.006370488554239273,
					0.006370488554239273,
					1
				],
				"roughnessFactor":0.5
			}
		},
		{
			"doubleSided":true,
			"name":"Material.007",
			"pbrMetallicRoughness":{
				"baseColorTexture":{
					"index":0
				},
				"metallicFactor":0,
				"roughnessFactor":0.5
			}
		},
		{
			"doubleSided":true,
			"name":"Material.001",
			"pbrMetallicRoughness":{
				"baseColorFactor":[
					0.8000000715255737,
					0,
					0.005525335669517517,
					1
				],
				"metallicFactor":0,
				"roughnessFactor":0.5
			}
		},
		{
			"doubleSided":true,
			"name":"Material.002",
			"pbrMetallicRoughness":{
				"baseColorFactor":[
					0.0027410562615841627,
					0.20005927979946136,
					0.8000000715255737,
					1
				],
				"metallicFactor":0,
				"roughnessFactor":0.5
			}
		},
		{
			"doubleSided":true,
			"name":"Material.003",
			"pbrMetallicRoughness":{
				"baseColorFactor":[
					0,
					0.8000000715255737,
					0.0062334975227713585,
					1
				],
				"metallicFactor":0,
				"roughnessFactor":0.5
			}
		},
		{
			"doubleSided":true,
			"name":"Material.004",
			"pbrMetallicRoughness":{
				"baseColorFactor":[
					0.8000000715255737,
					0.5195631384849548,
					0,
					1
				],
				"metallicFactor":0,
				"roughnessFactor":0.5
			}
		}
	],
	"meshes":[
		{
			"name":"Cylinder.001",
			"primitives":[
				{
					"attributes":{
						"POSITION":0,
						"TEXCOORD_0":1,
						"NORMAL":2
					},
					"indices":3,
					"material":0
				}
			]
		},
		{
			"name":"Plane",
			"primitives":[
				{
					"attributes":{
						"POSITION":4,
						"TEXCOORD_0":5,
						"NORMAL":6
					},
					"indices":7,
					"material":1
				}
			]
		},
		{
			"name":"Text.002",
			"primitives":[
				{
					"attributes":{
						"POSITION":8,
						"TEXCOORD_0":9,
						"NORMAL":10
					},
					"indices":11,
					"material":2
				},
				{
					"attributes":{
						"POSITION":12,
						"TEXCOORD_0":13,
						"NORMAL":14
					},
					"indices":15,
					"material":3
				}
			]
		},
		{
			"name":"Text.003",
			"primitives":[
				{
					"attributes":{
						"POSITION":16,
						"TEXCOORD_0":17,
						"NORMAL":18
					},
					"indices":19,
					"material":4
				},
				{
					"attributes":{
						"POSITION":20,
						"TEXCOORD_0":21,
						"NORMAL":22
					},
					"indices":23,
					"material":5
				}
			]
		}
	],
	"textures":[
		{
			"sampler":0,
			"source":0
		}
	],
	"images":[
		{
			"bufferView":8,
			"mimeType":"image/png",
			"name":"Microsoft-Flight-Simulator-Logo-2"
		}
	],
	"accessors":[
		{
			"bufferView":0,
			"componentType":5126,
			"count":384,
			"max":[
				1,
				38.30088806152344,
				1
			],
			"min":[
				-21.21146583557129,
				-383.7651062011719,
				-1
			],
			"type":"VEC3"
		},
		{
			"bufferView":1,
			"componentType":5126,
			"count":384,
			"type":"VEC2"
		},
		{
			"bufferView":2,
			"componentType":5126,
			"count":384,
			"type":"VEC3"
		},
		{
			"bufferView":3,
			"componentType":5123,
			"count":744,
			"type":"SCALAR"
		},
		{
			"bufferView":4,
			"componentType":5126,
			"count":24,
			"max":[
				1,
				0,
				1
			],
			"min":[
				-1,
				-0.07854759693145752,
				-1
			],
			"type":"VEC3"
		},
		{
			"bufferView":5,
			"componentType":5126,
			"count":24,
			"type":"VEC2"
		},
		{
			"bufferView":6,
			"componentType":5126,
			"count":24,
			"type":"VEC3"
		},
		{
			"bufferView":7,
			"componentType":5123,
			"count":36,
			"type":"SCALAR"
		},
		{
			"bufferView":9,
			"componentType":5126,
			"count":1518,
			"max":[
				2.454000234603882,
				0,
				0.009000000543892384
			],
			"min":[
				-2.4230000972747803,
				-0.16594356298446655,
				-0.6910000443458557
			],
			"type":"VEC3"
		},
		{
			"bufferView":10,
			"componentType":5126,
			"count":1518,
			"type":"VEC2"
		},
		{
			"bufferView":11,
			"componentType":5126,
			"count":1518,
			"type":"VEC3"
		},
		{
			"bufferView":12,
			"componentType":5123,
			"count":2988,
			"type":"SCALAR"
		},
		{
			"bufferView":13,
			"componentType":5126,
			"count":1748,
			"max":[
				4.042999744415283,
				0,
				1.0089999437332153
			],
			"min":[
				-4.045000076293945,
				-0.16594356298446655,
				0.3089999556541443
			],
			"type":"VEC3"
		},
		{
			"bufferView":14,
			"componentType":5126,
			"count":1748,
			"type":"VEC2"
		},
		{
			"bufferView":15,
			"componentType":5126,
			"count":1748,
			"type":"VEC3"
		},
		{
			"bufferView":16,
			"componentType":5123,
			"count":3384,
			"type":"SCALAR"
		},
		{
			"bufferView":17,
			"componentType":5126,
			"count":3990,
			"max":[
				5.15700101852417,
				0,
				0.009000000543892384
			],
			"min":[
				-5.158000946044922,
				-0.1898275911808014,
				-0.6910000443458557
			],
			"type":"VEC3"
		},
		{
			"bufferView":18,
			"componentType":5126,
			"count":3990,
			"type":"VEC2"
		},
		{
			"bufferView":19,
			"componentType":5126,
			"count":3990,
			"type":"VEC3"
		},
		{
			"bufferView":20,
			"componentType":5123,
			"count":7896,
			"type":"SCALAR"
		},
		{
			"bufferView":21,
			"componentType":5126,
			"count":534,
			"max":[
				2.7900002002716064,
				0,
				1.00600004196167
			],
			"min":[
				-2.7170000076293945,
				-0.1898275911808014,
				0.3139999508857727
			],
			"type":"VEC3"
		},
		{
			"bufferView":22,
			"componentType":5126,
			"count":534,
			"type":"VEC2"
		},
		{
			"bufferView":23,
			"componentType":5126,
			"count":534,
			"type":"VEC3"
		},
		{
			"bufferView":24,
			"componentType":5123,
			"count":972,
			"type":"SCALAR"
		}
	],
	"bufferViews":[
		{
			"buffer":0,
			"byteLength":4608,
			"byteOffset":0,
			"target":34962
		},
		{
			"buffer":0,
			"byteLength":3072,
			"byteOffset":4608,
			"target":34962
		},
		{
			"buffer":0,
			"byteLength":4608,
			"byteOffset":7680,
			"target":34962
		},
		{
			"buffer":0,
			"byteLength":1488,
			"byteOffset":12288,
			"target":34963
		},
		{
			"buffer":0,
			"byteLength":288,
			"byteOffset":13776,
			"target":34962
		},
		{
			"buffer":0,
			"byteLength":192,
			"byteOffset":14064,
			"target":34962
		},
		{
			"buffer":0,
			"byteLength":288,
			"byteOffset":14256,
			"target":34962
		},
		{
			"buffer":0,
			"byteLength":72,
			"byteOffset":14544,
			"target":34963
		},
		{
			"buffer":0,
			"byteLength":2010979,
			"byteOffset":14616
		},
		{
			"buffer":0,
			"byteLength":18216,
			"byteOffset":2025596,
			"target":34962
		},
		{
			"buffer":0,
			"byteLength":12144,
			"byteOffset":2043812,
			"target":34962
		},
		{
			"buffer":0,
			"byteLength":18216,
			"byteOffset":2055956,
			"target":34962
		},
		{
			"buffer":0,
			"byteLength":5976,
			"byteOffset":2074172,
			"target":34963
		},
		{
			"buffer":0,
			"byteLength":20976,
			"byteOffset":2080148,
			"target":34962
		},
		{
			"buffer":0,
			"byteLength":13984,
			"byteOffset":2101124,
			"target":34962
		},
		{
			"buffer":0,
			"byteLength":20976,
			"byteOffset":2115108,
			"target":34962
		},
		{
			"buffer":0,
			"byteLength":6768,
			"byteOffset":2136084,
			"target":34963
		},
		{
			"buffer":0,
			"byteLength":47880,
			"byteOffset":2142852,
			"target":34962
		},
		{
			"buffer":0,
			"byteLength":31920,
			"byteOffset":2190732,
			"target":34962
		},
		{
			"buffer":0,
			"byteLength":47880,
			"byteOffset":2222652,
			"target":34962
		},
		{
			"buffer":0,
			"byteLength":15792,
			"byteOffset":2270532,
			"target":34963
		},
		{
			"buffer":0,
			"byteLength":6408,
			"byteOffset":2286324,
			"target":34962
		},
		{
			"buffer":0,
			"byteLength":4272,
			"byteOffset":2292732,
			"target":34962
		},
		{
			"buffer":0,
			"byteLength":6408,
			"byteOffset":2297004,
			"target":34962
		},
		{
			"buffer":0,
			"byteLength":1944,
			"byteOffset":2303412,
			"target":34963
		}
	],
	"samplers":[
		{
			"magFilter":9729,
			"minFilter":9987
		}
	],
	"buffers":[
		{
			"byteLength":2305356,
			"uri":"data:application/octet-stream;base64,"
		}
	]
}
