{
	"asset":{
		"generator":"Khronos glTF Blender I/O v3.5.30",
		"version":"2.0"
	},
	"extensionsUsed":[
		"KHR_materials_specular",
		"KHR_materials_ior"
	],
	"scene":0,
	"scenes":[
		{
			"name":"Scene",
			"nodes":[
				0,
				1,
				2,
				3,
				4,
				5,
				6,
				7,
				8,
				9,
				10,
				11
			]
		}
	],
	"nodes":[
		{
			"mesh":0,
			"name":"Plane",
			"scale":[
				2.759305238723755,
				1.8754428625106812,
				13.671965599060059
			],
			"translation":[
				-0.002853166311979294,
				-4.988786697387695,
				0.010031886398792267
			]
		},
		{
			"mesh":1,
			"name":"Cylinder.003",
			"scale":[
				1.3023914098739624,
				0.5980592966079712,
				0.5980592966079712
			],
			"translation":[
				-0.002853166311979294,
				-4.988786697387695,
				0.010031886398792267
			]
		},
		{
			"mesh":2,
			"name":"Plane.001",
			"scale":[
				21.629638671875,
				25.007802963256836,
				25.007802963256836
			],
			"translation":[
				-0.002853166311979294,
				-4.988786697387695,
				0.010031886398792267
			]
		},
		{
			"mesh":3,
			"name":"Cube.001_Cube.002",
			"rotation":[
				0.7071068286895752,
				0,
				0,
				0.7071068286895752
			],
			"scale":[
				1.8754428625106812,
				1.8754428625106812,
				1.8754428625106812
			],
			"translation":[
				-4.8928656578063965,
				-4.988786697387695,
				0.010034121572971344
			]
		},
		{
			"mesh":4,
			"name":"Cube.002_Cube.003",
			"rotation":[
				0.7071068286895752,
				0,
				0,
				0.7071068286895752
			],
			"scale":[
				1.8754428625106812,
				1.8754428625106812,
				1.8754428625106812
			],
			"translation":[
				-4.8928656578063965,
				-4.988786697387695,
				0.010034121572971344
			]
		},
		{
			"mesh":5,
			"name":"window",
			"rotation":[
				0.7071068286895752,
				0,
				0,
				0.7071068286895752
			],
			"scale":[
				1.8754428625106812,
				1.8754428625106812,
				1.8754428625106812
			],
			"translation":[
				-4.8928656578063965,
				-4.988786697387695,
				0.010034121572971344
			]
		},
		{
			"mesh":6,
			"name":"Cube.004",
			"rotation":[
				0.7071068286895752,
				0,
				0,
				0.7071068286895752
			],
			"scale":[
				1.8754428625106812,
				1.8754428625106812,
				1.8754428625106812
			],
			"translation":[
				-4.8928656578063965,
				-4.988786697387695,
				0.010031886398792267
			]
		},
		{
			"mesh":7,
			"name":"Cube_Cube.001",
			"rotation":[
				0.7071068286895752,
				0,
				0,
				0.7071068286895752
			],
			"scale":[
				1.8754428625106812,
				1.8754428625106812,
				1.8754428625106812
			],
			"translation":[
				-4.8928656578063965,
				-4.988786697387695,
				0.010034121572971344
			]
		},
		{
			"mesh":8,
			"name":"Cylinder",
			"rotation":[
				0.7071068286895752,
				0,
				0,
				0.7071068286895752
			],
			"scale":[
				1.8754428625106812,
				1.8754428625106812,
				1.8754428625106812
			],
			"translation":[
				-4.8928656578063965,
				-4.988786697387695,
				0.010031886398792267
			]
		},
		{
			"mesh":9,
			"name":"Cylinder.001",
			"rotation":[
				0.7071068286895752,
				0,
				0,
				0.7071068286895752
			],
			"scale":[
				1.8754428625106812,
				1.8754428625106812,
				1.8754428625106812
			],
			"translation":[
				-4.8928656578063965,
				-4.988786697387695,
				0.010031886398792267
			]
		},
		{
			"mesh":10,
			"name":"Cylinder.002",
			"rotation":[
				0.7071068286895752,
				0,
				0,
				0.7071068286895752
			],
			"scale":[
				1.8754428625106812,
				1.8754428625106812,
				1.8754428625106812
			],
			"translation":[
				-4.8928656578063965,
				-4.988786697387695,
				0.010031886398792267
			]
		},
		{
			"mesh":11,
			"name":"Plane.002",
			"rotation":[
				0.7071068286895752,
				0,
				0,
				0.7071068286895752
			],
			"scale":[
				1.8754428625106812,
				1.8754428625106812,
				1.8754428625106812
			],
			"translation":[
				-4.8928656578063965,
				-4.988786697387695,
				0.010031886398792267
			]
		}
	],
	"materials":[
		{
			"doubleSided":true,
			"name":"Material.005",
			"pbrMetallicRoughness":{
				"baseColorTexture":{
					"index":0
				},
				"metallicFactor":0
			}
		},
		{
			"doubleSided":true,
			"name":"Material.003",
			"pbrMetallicRoughness":{
				"baseColorFactor":[
					0.004895899444818497,
					0.004895899444818497,
					0.004895899444818497,
					1
				],
				"metallicFactor":0,
				"roughnessFactor":0.5
			}
		},
		{
			"doubleSided":true,
			"name":"Material.004",
			"pbrMetallicRoughness":{
				"baseColorFactor":[
					0.0699794739484787,
					0.0699794739484787,
					0.0699794739484787,
					1
				],
				"metallicFactor":0.3928571343421936,
				"roughnessFactor":0.5
			}
		},
		{
			"doubleSided":true,
			"extensions":{
				"KHR_materials_specular":{
					"specularColorFactor":[
						0,
						0,
						0
					]
				},
				"KHR_materials_ior":{
					"ior":1.4500000476837158
				}
			},
			"name":"None",
			"pbrMetallicRoughness":{
				"baseColorFactor":[
					0.049550555646419525,
					0.049550555646419525,
					0.049550555646419525,
					1
				],
				"metallicFactor":0
			}
		},
		{
			"doubleSided":true,
			"extensions":{
				"KHR_materials_specular":{
					"specularColorFactor":[
						0,
						0,
						0
					]
				},
				"KHR_materials_ior":{
					"ior":1.4500000476837158
				}
			},
			"name":"Material.001",
			"pbrMetallicRoughness":{
				"baseColorFactor":[
					0.45543932914733887,
					0.5980817079544067,
					0.8000000715255737,
					1
				],
				"metallicFactor":0,
				"roughnessFactor":0
			}
		}
	],
	"meshes":[
		{
			"name":"Plane",
			"primitives":[
				{
					"attributes":{
						"POSITION":0,
						"TEXCOORD_0":1,
						"NORMAL":2
					},
					"indices":3,
					"material":0
				}
			]
		},
		{
			"name":"Cylinder.003",
			"primitives":[
				{
					"attributes":{
						"POSITION":4,
						"TEXCOORD_0":5,
						"NORMAL":6
					},
					"indices":7,
					"material":1
				}
			]
		},
		{
			"name":"Plane.001",
			"primitives":[
				{
					"attributes":{
						"POSITION":8,
						"TEXCOORD_0":9,
						"NORMAL":10
					},
					"indices":11,
					"material":2
				}
			]
		},
		{
			"name":"Cube.001_Cube.002",
			"primitives":[
				{
					"attributes":{
						"POSITION":12,
						"NORMAL":13
					},
					"indices":14,
					"material":3
				}
			]
		},
		{
			"name":"Cube.002_Cube.003",
			"primitives":[
				{
					"attributes":{
						"POSITION":15,
						"NORMAL":16
					},
					"indices":17,
					"material":3
				}
			]
		},
		{
			"name":"Cube.003_Cube.000",
			"primitives":[
				{
					"attributes":{
						"POSITION":18,
						"NORMAL":19
					},
					"indices":20,
					"material":4
				}
			]
		},
		{
			"name":"Cube.004",
			"primitives":[
				{
					"attributes":{
						"POSITION":21,
						"NORMAL":22
					},
					"indices":23,
					"material":3
				}
			]
		},
		{
			"name":"Cube_Cube.001",
			"primitives":[
				{
					"attributes":{
						"POSITION":24,
						"NORMAL":25
					},
					"indices":26,
					"material":3
				}
			]
		},
		{
			"name":"Cylinder.004",
			"primitives":[
				{
					"attributes":{
						"POSITION":27,
						"NORMAL":28
					},
					"indices":29,
					"material":3
				}
			]
		},
		{
			"name":"Cylinder.005",
			"primitives":[
				{
					"attributes":{
						"POSITION":30,
						"NORMAL":31
					},
					"indices":29,
					"material":3
				}
			]
		},
		{
			"name":"Cylinder.006",
			"primitives":[
				{
					"attributes":{
						"POSITION":32,
						"NORMAL":33
					},
					"indices":29,
					"material":3
				}
			]
		},
		{
			"name":"Plane.002",
			"primitives":[
				{
					"attributes":{
						"POSITION":34,
						"NORMAL":35
					},
					"indices":36,
					"material":3
				}
			]
		}
	],
	"textures":[
		{
			"sampler":0,
			"source":0
		}
	],
	"images":[
		{
			"bufferView":4,
			"mimeType":"image/jpeg",
			"name":"daniel-p"
		}
	],
	"accessors":[
		{
			"bufferView":0,
			"componentType":5126,
			"count":24,
			"max":[
				2.4950156211853027,
				5.420690536499023,
				2.554173707962036
			],
			"min":[
				-2.798780918121338,
				4.988832473754883,
				-1.8211746215820312
			],
			"type":"VEC3"
		},
		{
			"bufferView":1,
			"componentType":5126,
			"count":24,
			"type":"VEC2"
		},
		{
			"bufferView":2,
			"componentType":5126,
			"count":24,
			"type":"VEC3"
		},
		{
			"bufferView":3,
			"componentType":5123,
			"count":36,
			"type":"SCALAR"
		},
		{
			"bufferView":5,
			"componentType":5126,
			"count":816,
			"max":[
				14.428468704223633,
				15.907451629638672,
				57.93101501464844
			],
			"min":[
				-14.970518112182617,
				-213.5081787109375,
				-41.17424774169922
			],
			"type":"VEC3"
		},
		{
			"bufferView":6,
			"componentType":5126,
			"count":816,
			"type":"VEC2"
		},
		{
			"bufferView":7,
			"componentType":5126,
			"count":816,
			"type":"VEC3"
		},
		{
			"bufferView":8,
			"componentType":5123,
			"count":2304,
			"type":"SCALAR"
		},
		{
			"bufferView":9,
			"componentType":5126,
			"count":24,
			"max":[
				0.9749691486358643,
				0.3865757882595062,
				1.4490114450454712
			],
			"min":[
				-1.0250308513641357,
				0.3710145056247711,
				-1.0482749938964844
			],
			"type":"VEC3"
		},
		{
			"bufferView":10,
			"componentType":5126,
			"count":24,
			"type":"VEC2"
		},
		{
			"bufferView":11,
			"componentType":5126,
			"count":24,
			"type":"VEC3"
		},
		{
			"bufferView":12,
			"componentType":5123,
			"count":36,
			"type":"SCALAR"
		},
		{
			"bufferView":13,
			"componentType":5126,
			"count":20,
			"max":[
				-6.0383148193359375,
				-10.870664596557617,
				-10.038211822509766
			],
			"min":[
				-8.2893648147583,
				-13.12171459197998,
				-10.238212585449219
			],
			"type":"VEC3"
		},
		{
			"bufferView":14,
			"componentType":5126,
			"count":20,
			"type":"VEC3"
		},
		{
			"bufferView":15,
			"componentType":5123,
			"count":30,
			"type":"SCALAR"
		},
		{
			"bufferView":16,
			"componentType":5126,
			"count":4,
			"max":[
				-5.702363014221191,
				-10.534711837768555,
				-10.038211822509766
			],
			"min":[
				-8.625316619873047,
				-13.457666397094727,
				-10.038211822509766
			],
			"type":"VEC3"
		},
		{
			"bufferView":17,
			"componentType":5126,
			"count":4,
			"type":"VEC3"
		},
		{
			"bufferView":18,
			"componentType":5123,
			"count":6,
			"type":"SCALAR"
		},
		{
			"bufferView":19,
			"componentType":5126,
			"count":16,
			"max":[
				-5.585165023803711,
				-10.417513847351074,
				-10.238212585449219
			],
			"min":[
				-8.742514610290527,
				-13.574864387512207,
				-12.038211822509766
			],
			"type":"VEC3"
		},
		{
			"bufferView":20,
			"componentType":5126,
			"count":16,
			"type":"VEC3"
		},
		{
			"bufferView":21,
			"componentType":5123,
			"count":24,
			"type":"SCALAR"
		},
		{
			"bufferView":22,
			"componentType":5126,
			"count":24,
			"max":[
				-5.585165023803711,
				-10.417513847351074,
				-12.038211822509766
			],
			"min":[
				-8.742514610290527,
				-13.574864387512207,
				-12.238212585449219
			],
			"type":"VEC3"
		},
		{
			"bufferView":23,
			"componentType":5126,
			"count":24,
			"type":"VEC3"
		},
		{
			"bufferView":24,
			"componentType":5123,
			"count":36,
			"type":"SCALAR"
		},
		{
			"bufferView":25,
			"componentType":5126,
			"count":22,
			"max":[
				-5.702363014221191,
				-10.534711837768555,
				-4.982123374938965
			],
			"min":[
				-8.625316619873047,
				-13.457666397094727,
				-10.180187225341797
			],
			"type":"VEC3"
		},
		{
			"bufferView":26,
			"componentType":5126,
			"count":22,
			"type":"VEC3"
		},
		{
			"bufferView":27,
			"componentType":5123,
			"count":36,
			"type":"SCALAR"
		},
		{
			"bufferView":28,
			"componentType":5126,
			"count":192,
			"max":[
				-7.2685465812683105,
				-11.83300495147705,
				-12.204187393188477
			],
			"min":[
				-7.294397830963135,
				-11.871461868286133,
				-13.039276123046875
			],
			"type":"VEC3"
		},
		{
			"bufferView":29,
			"componentType":5126,
			"count":192,
			"type":"VEC3"
		},
		{
			"bufferView":30,
			"componentType":5123,
			"count":372,
			"type":"SCALAR"
		},
		{
			"bufferView":31,
			"componentType":5126,
			"count":192,
			"max":[
				-7.119670867919922,
				-12.130033493041992,
				-11.86298942565918
			],
			"min":[
				-7.145522594451904,
				-12.168490409851074,
				-13.380474090576172
			],
			"type":"VEC3"
		},
		{
			"bufferView":32,
			"componentType":5126,
			"count":192,
			"type":"VEC3"
		},
		{
			"bufferView":33,
			"componentType":5126,
			"count":192,
			"max":[
				-6.99139404296875,
				-12.274004936218262,
				-12.204187393188477
			],
			"min":[
				-7.017245769500732,
				-12.312461853027344,
				-13.039276123046875
			],
			"type":"VEC3"
		},
		{
			"bufferView":34,
			"componentType":5126,
			"count":192,
			"type":"VEC3"
		},
		{
			"bufferView":35,
			"componentType":5126,
			"count":24,
			"max":[
				-6.6389288902282715,
				-13.34854793548584,
				-4.872559070587158
			],
			"min":[
				-7.6963791847229,
				-13.51673412322998,
				-6.554101943969727
			],
			"type":"VEC3"
		},
		{
			"bufferView":36,
			"componentType":5126,
			"count":24,
			"type":"VEC3"
		},
		{
			"bufferView":37,
			"componentType":5123,
			"count":36,
			"type":"SCALAR"
		}
	],
	"bufferViews":[
		{
			"buffer":0,
			"byteLength":288,
			"byteOffset":0,
			"target":34962
		},
		{
			"buffer":0,
			"byteLength":192,
			"byteOffset":288,
			"target":34962
		},
		{
			"buffer":0,
			"byteLength":288,
			"byteOffset":480,
			"target":34962
		},
		{
			"buffer":0,
			"byteLength":72,
			"byteOffset":768,
			"target":34963
		},
		{
			"buffer":0,
			"byteLength":208375,
			"byteOffset":840
		},
		{
			"buffer":0,
			"byteLength":9792,
			"byteOffset":209216,
			"target":34962
		},
		{
			"buffer":0,
			"byteLength":6528,
			"byteOffset":219008,
			"target":34962
		},
		{
			"buffer":0,
			"byteLength":9792,
			"byteOffset":225536,
			"target":34962
		},
		{
			"buffer":0,
			"byteLength":4608,
			"byteOffset":235328,
			"target":34963
		},
		{
			"buffer":0,
			"byteLength":288,
			"byteOffset":239936,
			"target":34962
		},
		{
			"buffer":0,
			"byteLength":192,
			"byteOffset":240224,
			"target":34962
		},
		{
			"buffer":0,
			"byteLength":288,
			"byteOffset":240416,
			"target":34962
		},
		{
			"buffer":0,
			"byteLength":72,
			"byteOffset":240704,
			"target":34963
		},
		{
			"buffer":0,
			"byteLength":240,
			"byteOffset":240776,
			"target":34962
		},
		{
			"buffer":0,
			"byteLength":240,
			"byteOffset":241016,
			"target":34962
		},
		{
			"buffer":0,
			"byteLength":60,
			"byteOffset":241256,
			"target":34963
		},
		{
			"buffer":0,
			"byteLength":48,
			"byteOffset":241316,
			"target":34962
		},
		{
			"buffer":0,
			"byteLength":48,
			"byteOffset":241364,
			"target":34962
		},
		{
			"buffer":0,
			"byteLength":12,
			"byteOffset":241412,
			"target":34963
		},
		{
			"buffer":0,
			"byteLength":192,
			"byteOffset":241424,
			"target":34962
		},
		{
			"buffer":0,
			"byteLength":192,
			"byteOffset":241616,
			"target":34962
		},
		{
			"buffer":0,
			"byteLength":48,
			"byteOffset":241808,
			"target":34963
		},
		{
			"buffer":0,
			"byteLength":288,
			"byteOffset":241856,
			"target":34962
		},
		{
			"buffer":0,
			"byteLength":288,
			"byteOffset":242144,
			"target":34962
		},
		{
			"buffer":0,
			"byteLength":72,
			"byteOffset":242432,
			"target":34963
		},
		{
			"buffer":0,
			"byteLength":264,
			"byteOffset":242504,
			"target":34962
		},
		{
			"buffer":0,
			"byteLength":264,
			"byteOffset":242768,
			"target":34962
		},
		{
			"buffer":0,
			"byteLength":72,
			"byteOffset":243032,
			"target":34963
		},
		{
			"buffer":0,
			"byteLength":2304,
			"byteOffset":243104,
			"target":34962
		},
		{
			"buffer":0,
			"byteLength":2304,
			"byteOffset":245408,
			"target":34962
		},
		{
			"buffer":0,
			"byteLength":744,
			"byteOffset":247712,
			"target":34963
		},
		{
			"buffer":0,
			"byteLength":2304,
			"byteOffset":248456,
			"target":34962
		},
		{
			"buffer":0,
			"byteLength":2304,
			"byteOffset":250760,
			"target":34962
		},
		{
			"buffer":0,
			"byteLength":2304,
			"byteOffset":253064,
			"target":34962
		},
		{
			"buffer":0,
			"byteLength":2304,
			"byteOffset":255368,
			"target":34962
		},
		{
			"buffer":0,
			"byteLength":288,
			"byteOffset":257672,
			"target":34962
		},
		{
			"buffer":0,
			"byteLength":288,
			"byteOffset":257960,
			"target":34962
		},
		{
			"buffer":0,
			"byteLength":72,
			"byteOffset":258248,
			"target":34963
		}
	],
	"samplers":[
		{
			"magFilter":9729,
			"minFilter":9987
		}
	],
	"buffers":[
		{
			"byteLength":258320,
			"uri":"data:application/octet-stream;base64,"
		}
	]
}
